M48
; DRILL file KiCad 10.0.3 date 2026-06-08T01:12:03
; FORMAT={-:-/ absolute / metric / decimal}
; #@! TF.CreationDate,2026-06-08T01:12:03+03:00
; #@! TF.GenerationSoftware,Kicad,Pcbnew,10.0.3
; #@! TF.FileFunction,Plated,1,4,PTH
FMAT,2
METRIC
; #@! TA.AperFunction,Plated,PTH,ViaDrill
T1C0.300
; #@! TA.AperFunction,Plated,PTH,ComponentDrill
T2C0.800
; #@! TA.AperFunction,Plated,PTH,ComponentDrill
T3C0.950
; #@! TA.AperFunction,Plated,PTH,ComponentDrill
T4C1.000
; #@! TA.AperFunction,Plated,PTH,ComponentDrill
T5C2.500
%
G90
G05
T1
X14.0Y-27.036
X15.24Y-12.7
X16.0Y-6.0
X16.0Y-94.0
X17.0Y-16.25
X18.77Y-93.0
X21.0Y-55.0
X22.86Y-16.35
X24.0Y-94.0
X25.88Y-97.0
X39.0Y-90.0
X42.0Y-6.0
X44.0Y-87.0
X49.5Y-27.823
X49.592Y-90.875
X49.665Y-94.335
X50.403Y-5.597
X53.0Y-53.0
X54.0Y-53.0
X55.513Y-89.387
X56.0Y-30.0
X57.0Y-15.0
X58.6Y-95.2
X60.5Y-8.0
X61.0Y-53.0
X62.0Y-53.0
X64.451Y-47.94
X65.0Y-52.0
X68.604Y-52.207
T2
X25.62Y-35.56
X25.62Y-45.72
X31.0Y-35.56
X40.64Y-68.58
X41.16Y-35.56
X50.8Y-68.58
X67.5Y-35.56
X67.5Y-45.72
X71.36Y-35.56
X71.36Y-45.72
T3
X4.0Y-91.525
X4.5Y-10.0
X6.5Y-91.525
X7.0Y-10.0
X9.0Y-91.525
X9.5Y-10.0
X70.0Y-6.0
X72.5Y-6.0
X75.0Y-6.0
X77.5Y-6.0
X90.0Y-6.0
X92.5Y-6.0
X95.0Y-6.0
T4
X3.0Y-33.0
X3.0Y-73.64
X5.08Y-20.32
X5.08Y-22.86
X5.08Y-81.28
X5.08Y-83.82
X7.62Y-20.32
X7.62Y-22.86
X7.62Y-81.28
X7.62Y-83.82
X10.16Y-20.32
X10.16Y-22.86
X10.16Y-81.28
X10.16Y-83.82
X12.7Y-20.32
X12.7Y-22.86
X12.7Y-81.28
X12.7Y-83.82
X15.24Y-20.32
X15.24Y-22.86
X15.24Y-81.28
X15.24Y-83.82
X17.78Y-20.32
X17.78Y-22.86
X17.78Y-81.28
X17.78Y-83.82
X20.32Y-20.32
X20.32Y-22.86
X20.32Y-81.28
X20.32Y-83.82
X20.78Y-33.0
X20.78Y-73.64
X22.86Y-20.32
X22.86Y-22.86
X22.86Y-81.28
X22.86Y-83.82
X25.4Y-20.32
X25.4Y-22.86
X25.4Y-81.28
X25.4Y-83.82
X27.94Y-20.32
X27.94Y-22.86
X27.94Y-81.28
X27.94Y-83.82
X30.48Y-20.32
X30.48Y-22.86
X30.48Y-81.28
X30.48Y-83.82
X33.02Y-20.32
X33.02Y-22.86
X33.02Y-81.28
X33.02Y-83.82
X35.56Y-20.32
X35.56Y-22.86
X35.56Y-81.28
X35.56Y-83.82
X38.1Y-20.32
X38.1Y-22.86
X38.1Y-81.28
X38.1Y-83.82
X40.64Y-20.32
X40.64Y-22.86
X40.64Y-81.28
X40.64Y-83.82
X43.18Y-20.32
X43.18Y-22.86
X43.18Y-40.64
X43.18Y-58.42
X43.18Y-81.28
X43.18Y-83.82
X45.72Y-20.32
X45.72Y-22.86
X45.72Y-40.64
X45.72Y-58.42
X45.72Y-81.28
X45.72Y-83.82
X48.26Y-20.32
X48.26Y-22.86
X48.26Y-40.64
X48.26Y-58.42
X48.26Y-81.28
X48.26Y-83.82
X50.8Y-20.32
X50.8Y-22.86
X50.8Y-40.64
X50.8Y-58.42
X50.8Y-81.28
X50.8Y-83.82
X53.34Y-20.32
X53.34Y-22.86
X53.34Y-40.64
X53.34Y-58.42
X53.34Y-81.28
X53.34Y-83.82
X55.88Y-20.32
X55.88Y-22.86
X55.88Y-40.64
X55.88Y-58.42
X55.88Y-81.28
X55.88Y-83.82
X58.42Y-20.32
X58.42Y-22.86
X58.42Y-81.28
X58.42Y-83.82
X60.96Y-20.32
X60.96Y-22.86
X60.96Y-81.28
X60.96Y-83.82
X60.96Y-92.0
X63.5Y-20.32
X63.5Y-22.86
X63.5Y-81.28
X63.5Y-83.82
X63.5Y-92.0
X66.04Y-20.32
X66.04Y-22.86
X66.04Y-81.28
X66.04Y-83.82
X66.04Y-92.0
X68.58Y-20.32
X68.58Y-22.86
X68.58Y-81.28
X68.58Y-83.82
X68.58Y-92.0
X71.12Y-20.32
X71.12Y-22.86
X71.12Y-81.28
X71.12Y-83.82
X71.12Y-92.0
X73.66Y-20.32
X73.66Y-22.86
X73.66Y-81.28
X73.66Y-83.82
X73.66Y-92.0
X76.2Y-20.32
X76.2Y-22.86
X76.2Y-81.28
X76.2Y-83.82
X78.74Y-20.32
X78.74Y-22.86
X78.74Y-81.28
X78.74Y-83.82
X81.28Y-20.32
X81.28Y-22.86
X81.28Y-81.28
X81.28Y-83.82
X83.82Y-20.32
X83.82Y-22.86
X83.82Y-81.28
X83.82Y-83.82
X86.36Y-20.32
X86.36Y-22.86
X86.36Y-81.28
X86.36Y-83.82
X88.9Y-20.32
X88.9Y-22.86
X88.9Y-81.28
X88.9Y-83.82
X91.44Y-20.32
X91.44Y-22.86
X91.44Y-81.28
X91.44Y-83.82
T5
X39.37Y-40.64
X39.37Y-58.42
X59.69Y-40.64
X59.69Y-58.42
M30
