%TF.GenerationSoftware,KiCad,Pcbnew,10.0.3*%
%TF.CreationDate,2026-06-08T01:12:05+03:00*%
%TF.ProjectId,MetuX,4d657475-582e-46b6-9963-61645f706362,rev?*%
%TF.SameCoordinates,Original*%
%TF.FileFunction,Legend,Top*%
%TF.FilePolarity,Positive*%
%FSLAX46Y46*%
G04 Gerber Fmt 4.6, Leading zero omitted, Abs format (unit mm)*
G04 Created by KiCad (PCBNEW 10.0.3) date 2026-06-08 01:12:05*
%MOMM*%
%LPD*%
G01*
G04 APERTURE LIST*
%ADD10C,0.150000*%
%ADD11C,0.120000*%
%ADD12C,0.046120*%
%ADD13C,0.038434*%
G04 APERTURE END LIST*
D10*
X72607142Y-11054819D02*
X72130952Y-11054819D01*
X72130952Y-11054819D02*
X72130952Y-10054819D01*
X72940476Y-11054819D02*
X72940476Y-10388152D01*
X72940476Y-10054819D02*
X72892857Y-10102438D01*
X72892857Y-10102438D02*
X72940476Y-10150057D01*
X72940476Y-10150057D02*
X72988095Y-10102438D01*
X72988095Y-10102438D02*
X72940476Y-10054819D01*
X72940476Y-10054819D02*
X72940476Y-10150057D01*
X73845237Y-11054819D02*
X73845237Y-10054819D01*
X73845237Y-11007200D02*
X73749999Y-11054819D01*
X73749999Y-11054819D02*
X73559523Y-11054819D01*
X73559523Y-11054819D02*
X73464285Y-11007200D01*
X73464285Y-11007200D02*
X73416666Y-10959580D01*
X73416666Y-10959580D02*
X73369047Y-10864342D01*
X73369047Y-10864342D02*
X73369047Y-10578628D01*
X73369047Y-10578628D02*
X73416666Y-10483390D01*
X73416666Y-10483390D02*
X73464285Y-10435771D01*
X73464285Y-10435771D02*
X73559523Y-10388152D01*
X73559523Y-10388152D02*
X73749999Y-10388152D01*
X73749999Y-10388152D02*
X73845237Y-10435771D01*
X74749999Y-11054819D02*
X74749999Y-10531009D01*
X74749999Y-10531009D02*
X74702380Y-10435771D01*
X74702380Y-10435771D02*
X74607142Y-10388152D01*
X74607142Y-10388152D02*
X74416666Y-10388152D01*
X74416666Y-10388152D02*
X74321428Y-10435771D01*
X74749999Y-11007200D02*
X74654761Y-11054819D01*
X74654761Y-11054819D02*
X74416666Y-11054819D01*
X74416666Y-11054819D02*
X74321428Y-11007200D01*
X74321428Y-11007200D02*
X74273809Y-10911961D01*
X74273809Y-10911961D02*
X74273809Y-10816723D01*
X74273809Y-10816723D02*
X74321428Y-10721485D01*
X74321428Y-10721485D02*
X74416666Y-10673866D01*
X74416666Y-10673866D02*
X74654761Y-10673866D01*
X74654761Y-10673866D02*
X74749999Y-10626247D01*
X75226190Y-11054819D02*
X75226190Y-10388152D01*
X75226190Y-10578628D02*
X75273809Y-10483390D01*
X75273809Y-10483390D02*
X75321428Y-10435771D01*
X75321428Y-10435771D02*
X75416666Y-10388152D01*
X75416666Y-10388152D02*
X75511904Y-10388152D01*
X57644819Y-92333333D02*
X58359104Y-92333333D01*
X58359104Y-92333333D02*
X58501961Y-92380952D01*
X58501961Y-92380952D02*
X58597200Y-92476190D01*
X58597200Y-92476190D02*
X58644819Y-92619047D01*
X58644819Y-92619047D02*
X58644819Y-92714285D01*
X58644819Y-91333333D02*
X58644819Y-91904761D01*
X58644819Y-91619047D02*
X57644819Y-91619047D01*
X57644819Y-91619047D02*
X57787676Y-91714285D01*
X57787676Y-91714285D02*
X57882914Y-91809523D01*
X57882914Y-91809523D02*
X57930533Y-91904761D01*
X4071428Y-15054819D02*
X4071428Y-14054819D01*
X4071428Y-14054819D02*
X4404761Y-14769104D01*
X4404761Y-14769104D02*
X4738094Y-14054819D01*
X4738094Y-14054819D02*
X4738094Y-15054819D01*
X5642856Y-15054819D02*
X5642856Y-14531009D01*
X5642856Y-14531009D02*
X5595237Y-14435771D01*
X5595237Y-14435771D02*
X5499999Y-14388152D01*
X5499999Y-14388152D02*
X5309523Y-14388152D01*
X5309523Y-14388152D02*
X5214285Y-14435771D01*
X5642856Y-15007200D02*
X5547618Y-15054819D01*
X5547618Y-15054819D02*
X5309523Y-15054819D01*
X5309523Y-15054819D02*
X5214285Y-15007200D01*
X5214285Y-15007200D02*
X5166666Y-14911961D01*
X5166666Y-14911961D02*
X5166666Y-14816723D01*
X5166666Y-14816723D02*
X5214285Y-14721485D01*
X5214285Y-14721485D02*
X5309523Y-14673866D01*
X5309523Y-14673866D02*
X5547618Y-14673866D01*
X5547618Y-14673866D02*
X5642856Y-14626247D01*
X6119047Y-14388152D02*
X6119047Y-15054819D01*
X6119047Y-14483390D02*
X6166666Y-14435771D01*
X6166666Y-14435771D02*
X6261904Y-14388152D01*
X6261904Y-14388152D02*
X6404761Y-14388152D01*
X6404761Y-14388152D02*
X6499999Y-14435771D01*
X6499999Y-14435771D02*
X6547618Y-14531009D01*
X6547618Y-14531009D02*
X6547618Y-15054819D01*
X7023809Y-15054819D02*
X7023809Y-14388152D01*
X7023809Y-14054819D02*
X6976190Y-14102438D01*
X6976190Y-14102438D02*
X7023809Y-14150057D01*
X7023809Y-14150057D02*
X7071428Y-14102438D01*
X7071428Y-14102438D02*
X7023809Y-14054819D01*
X7023809Y-14054819D02*
X7023809Y-14150057D01*
X7357142Y-14388152D02*
X7738094Y-14388152D01*
X7499999Y-15054819D02*
X7499999Y-14197676D01*
X7499999Y-14197676D02*
X7547618Y-14102438D01*
X7547618Y-14102438D02*
X7642856Y-14054819D01*
X7642856Y-14054819D02*
X7738094Y-14054819D01*
X8214285Y-15054819D02*
X8119047Y-15007200D01*
X8119047Y-15007200D02*
X8071428Y-14959580D01*
X8071428Y-14959580D02*
X8023809Y-14864342D01*
X8023809Y-14864342D02*
X8023809Y-14578628D01*
X8023809Y-14578628D02*
X8071428Y-14483390D01*
X8071428Y-14483390D02*
X8119047Y-14435771D01*
X8119047Y-14435771D02*
X8214285Y-14388152D01*
X8214285Y-14388152D02*
X8357142Y-14388152D01*
X8357142Y-14388152D02*
X8452380Y-14435771D01*
X8452380Y-14435771D02*
X8499999Y-14483390D01*
X8499999Y-14483390D02*
X8547618Y-14578628D01*
X8547618Y-14578628D02*
X8547618Y-14864342D01*
X8547618Y-14864342D02*
X8499999Y-14959580D01*
X8499999Y-14959580D02*
X8452380Y-15007200D01*
X8452380Y-15007200D02*
X8357142Y-15054819D01*
X8357142Y-15054819D02*
X8214285Y-15054819D01*
X9119047Y-15054819D02*
X9023809Y-15007200D01*
X9023809Y-15007200D02*
X8976190Y-14911961D01*
X8976190Y-14911961D02*
X8976190Y-14054819D01*
X9928571Y-15054819D02*
X9928571Y-14054819D01*
X9928571Y-15007200D02*
X9833333Y-15054819D01*
X9833333Y-15054819D02*
X9642857Y-15054819D01*
X9642857Y-15054819D02*
X9547619Y-15007200D01*
X9547619Y-15007200D02*
X9500000Y-14959580D01*
X9500000Y-14959580D02*
X9452381Y-14864342D01*
X9452381Y-14864342D02*
X9452381Y-14578628D01*
X9452381Y-14578628D02*
X9500000Y-14483390D01*
X9500000Y-14483390D02*
X9547619Y-14435771D01*
X9547619Y-14435771D02*
X9642857Y-14388152D01*
X9642857Y-14388152D02*
X9833333Y-14388152D01*
X9833333Y-14388152D02*
X9928571Y-14435771D01*
X53784762Y-5269104D02*
X54260952Y-5269104D01*
X53689524Y-5554819D02*
X54022857Y-4554819D01*
X54022857Y-4554819D02*
X54356190Y-5554819D01*
X55260952Y-5459580D02*
X55213333Y-5507200D01*
X55213333Y-5507200D02*
X55070476Y-5554819D01*
X55070476Y-5554819D02*
X54975238Y-5554819D01*
X54975238Y-5554819D02*
X54832381Y-5507200D01*
X54832381Y-5507200D02*
X54737143Y-5411961D01*
X54737143Y-5411961D02*
X54689524Y-5316723D01*
X54689524Y-5316723D02*
X54641905Y-5126247D01*
X54641905Y-5126247D02*
X54641905Y-4983390D01*
X54641905Y-4983390D02*
X54689524Y-4792914D01*
X54689524Y-4792914D02*
X54737143Y-4697676D01*
X54737143Y-4697676D02*
X54832381Y-4602438D01*
X54832381Y-4602438D02*
X54975238Y-4554819D01*
X54975238Y-4554819D02*
X55070476Y-4554819D01*
X55070476Y-4554819D02*
X55213333Y-4602438D01*
X55213333Y-4602438D02*
X55260952Y-4650057D01*
X55546667Y-4554819D02*
X56118095Y-4554819D01*
X55832381Y-5554819D02*
X55832381Y-4554819D01*
X56356191Y-4554819D02*
X56975238Y-4554819D01*
X56975238Y-4554819D02*
X56641905Y-4935771D01*
X56641905Y-4935771D02*
X56784762Y-4935771D01*
X56784762Y-4935771D02*
X56880000Y-4983390D01*
X56880000Y-4983390D02*
X56927619Y-5031009D01*
X56927619Y-5031009D02*
X56975238Y-5126247D01*
X56975238Y-5126247D02*
X56975238Y-5364342D01*
X56975238Y-5364342D02*
X56927619Y-5459580D01*
X56927619Y-5459580D02*
X56880000Y-5507200D01*
X56880000Y-5507200D02*
X56784762Y-5554819D01*
X56784762Y-5554819D02*
X56499048Y-5554819D01*
X56499048Y-5554819D02*
X56403810Y-5507200D01*
X56403810Y-5507200D02*
X56356191Y-5459580D01*
X91166667Y-11054819D02*
X91166667Y-10054819D01*
X91166667Y-10054819D02*
X91547619Y-10054819D01*
X91547619Y-10054819D02*
X91642857Y-10102438D01*
X91642857Y-10102438D02*
X91690476Y-10150057D01*
X91690476Y-10150057D02*
X91738095Y-10245295D01*
X91738095Y-10245295D02*
X91738095Y-10388152D01*
X91738095Y-10388152D02*
X91690476Y-10483390D01*
X91690476Y-10483390D02*
X91642857Y-10531009D01*
X91642857Y-10531009D02*
X91547619Y-10578628D01*
X91547619Y-10578628D02*
X91166667Y-10578628D01*
X92071429Y-10054819D02*
X92309524Y-11054819D01*
X92309524Y-11054819D02*
X92500000Y-10340533D01*
X92500000Y-10340533D02*
X92690476Y-11054819D01*
X92690476Y-11054819D02*
X92928572Y-10054819D01*
X93880952Y-11054819D02*
X93547619Y-10578628D01*
X93309524Y-11054819D02*
X93309524Y-10054819D01*
X93309524Y-10054819D02*
X93690476Y-10054819D01*
X93690476Y-10054819D02*
X93785714Y-10102438D01*
X93785714Y-10102438D02*
X93833333Y-10150057D01*
X93833333Y-10150057D02*
X93880952Y-10245295D01*
X93880952Y-10245295D02*
X93880952Y-10388152D01*
X93880952Y-10388152D02*
X93833333Y-10483390D01*
X93833333Y-10483390D02*
X93785714Y-10531009D01*
X93785714Y-10531009D02*
X93690476Y-10578628D01*
X93690476Y-10578628D02*
X93309524Y-10578628D01*
X87309523Y-1994819D02*
X86833333Y-1994819D01*
X86833333Y-1994819D02*
X86785714Y-2471009D01*
X86785714Y-2471009D02*
X86833333Y-2423390D01*
X86833333Y-2423390D02*
X86928571Y-2375771D01*
X86928571Y-2375771D02*
X87166666Y-2375771D01*
X87166666Y-2375771D02*
X87261904Y-2423390D01*
X87261904Y-2423390D02*
X87309523Y-2471009D01*
X87309523Y-2471009D02*
X87357142Y-2566247D01*
X87357142Y-2566247D02*
X87357142Y-2804342D01*
X87357142Y-2804342D02*
X87309523Y-2899580D01*
X87309523Y-2899580D02*
X87261904Y-2947200D01*
X87261904Y-2947200D02*
X87166666Y-2994819D01*
X87166666Y-2994819D02*
X86928571Y-2994819D01*
X86928571Y-2994819D02*
X86833333Y-2947200D01*
X86833333Y-2947200D02*
X86785714Y-2899580D01*
X87642857Y-1994819D02*
X87976190Y-2994819D01*
X87976190Y-2994819D02*
X88309523Y-1994819D01*
X95900952Y-2994819D02*
X95329524Y-2994819D01*
X95615238Y-2994819D02*
X95615238Y-1994819D01*
X95615238Y-1994819D02*
X95520000Y-2137676D01*
X95520000Y-2137676D02*
X95424762Y-2232914D01*
X95424762Y-2232914D02*
X95329524Y-2280533D01*
X96281905Y-2090057D02*
X96329524Y-2042438D01*
X96329524Y-2042438D02*
X96424762Y-1994819D01*
X96424762Y-1994819D02*
X96662857Y-1994819D01*
X96662857Y-1994819D02*
X96758095Y-2042438D01*
X96758095Y-2042438D02*
X96805714Y-2090057D01*
X96805714Y-2090057D02*
X96853333Y-2185295D01*
X96853333Y-2185295D02*
X96853333Y-2280533D01*
X96853333Y-2280533D02*
X96805714Y-2423390D01*
X96805714Y-2423390D02*
X96234286Y-2994819D01*
X96234286Y-2994819D02*
X96853333Y-2994819D01*
X97139048Y-1994819D02*
X97472381Y-2994819D01*
X97472381Y-2994819D02*
X97805714Y-1994819D01*
X19404762Y-95169104D02*
X19880952Y-95169104D01*
X19309524Y-95454819D02*
X19642857Y-94454819D01*
X19642857Y-94454819D02*
X19976190Y-95454819D01*
X20880952Y-95359580D02*
X20833333Y-95407200D01*
X20833333Y-95407200D02*
X20690476Y-95454819D01*
X20690476Y-95454819D02*
X20595238Y-95454819D01*
X20595238Y-95454819D02*
X20452381Y-95407200D01*
X20452381Y-95407200D02*
X20357143Y-95311961D01*
X20357143Y-95311961D02*
X20309524Y-95216723D01*
X20309524Y-95216723D02*
X20261905Y-95026247D01*
X20261905Y-95026247D02*
X20261905Y-94883390D01*
X20261905Y-94883390D02*
X20309524Y-94692914D01*
X20309524Y-94692914D02*
X20357143Y-94597676D01*
X20357143Y-94597676D02*
X20452381Y-94502438D01*
X20452381Y-94502438D02*
X20595238Y-94454819D01*
X20595238Y-94454819D02*
X20690476Y-94454819D01*
X20690476Y-94454819D02*
X20833333Y-94502438D01*
X20833333Y-94502438D02*
X20880952Y-94550057D01*
X21166667Y-94454819D02*
X21738095Y-94454819D01*
X21452381Y-95454819D02*
X21452381Y-94454819D01*
X22595238Y-95454819D02*
X22023810Y-95454819D01*
X22309524Y-95454819D02*
X22309524Y-94454819D01*
X22309524Y-94454819D02*
X22214286Y-94597676D01*
X22214286Y-94597676D02*
X22119048Y-94692914D01*
X22119048Y-94692914D02*
X22023810Y-94740533D01*
X738094Y-88407200D02*
X880951Y-88454819D01*
X880951Y-88454819D02*
X1119046Y-88454819D01*
X1119046Y-88454819D02*
X1214284Y-88407200D01*
X1214284Y-88407200D02*
X1261903Y-88359580D01*
X1261903Y-88359580D02*
X1309522Y-88264342D01*
X1309522Y-88264342D02*
X1309522Y-88169104D01*
X1309522Y-88169104D02*
X1261903Y-88073866D01*
X1261903Y-88073866D02*
X1214284Y-88026247D01*
X1214284Y-88026247D02*
X1119046Y-87978628D01*
X1119046Y-87978628D02*
X928570Y-87931009D01*
X928570Y-87931009D02*
X833332Y-87883390D01*
X833332Y-87883390D02*
X785713Y-87835771D01*
X785713Y-87835771D02*
X738094Y-87740533D01*
X738094Y-87740533D02*
X738094Y-87645295D01*
X738094Y-87645295D02*
X785713Y-87550057D01*
X785713Y-87550057D02*
X833332Y-87502438D01*
X833332Y-87502438D02*
X928570Y-87454819D01*
X928570Y-87454819D02*
X1166665Y-87454819D01*
X1166665Y-87454819D02*
X1309522Y-87502438D01*
X2166665Y-88454819D02*
X2166665Y-87931009D01*
X2166665Y-87931009D02*
X2119046Y-87835771D01*
X2119046Y-87835771D02*
X2023808Y-87788152D01*
X2023808Y-87788152D02*
X1833332Y-87788152D01*
X1833332Y-87788152D02*
X1738094Y-87835771D01*
X2166665Y-88407200D02*
X2071427Y-88454819D01*
X2071427Y-88454819D02*
X1833332Y-88454819D01*
X1833332Y-88454819D02*
X1738094Y-88407200D01*
X1738094Y-88407200D02*
X1690475Y-88311961D01*
X1690475Y-88311961D02*
X1690475Y-88216723D01*
X1690475Y-88216723D02*
X1738094Y-88121485D01*
X1738094Y-88121485D02*
X1833332Y-88073866D01*
X1833332Y-88073866D02*
X2071427Y-88073866D01*
X2071427Y-88073866D02*
X2166665Y-88026247D01*
X2499999Y-87788152D02*
X2880951Y-87788152D01*
X2642856Y-88454819D02*
X2642856Y-87597676D01*
X2642856Y-87597676D02*
X2690475Y-87502438D01*
X2690475Y-87502438D02*
X2785713Y-87454819D01*
X2785713Y-87454819D02*
X2880951Y-87454819D01*
X3595237Y-88407200D02*
X3499999Y-88454819D01*
X3499999Y-88454819D02*
X3309523Y-88454819D01*
X3309523Y-88454819D02*
X3214285Y-88407200D01*
X3214285Y-88407200D02*
X3166666Y-88311961D01*
X3166666Y-88311961D02*
X3166666Y-87931009D01*
X3166666Y-87931009D02*
X3214285Y-87835771D01*
X3214285Y-87835771D02*
X3309523Y-87788152D01*
X3309523Y-87788152D02*
X3499999Y-87788152D01*
X3499999Y-87788152D02*
X3595237Y-87835771D01*
X3595237Y-87835771D02*
X3642856Y-87931009D01*
X3642856Y-87931009D02*
X3642856Y-88026247D01*
X3642856Y-88026247D02*
X3166666Y-88121485D01*
X3928571Y-87788152D02*
X4309523Y-87788152D01*
X4071428Y-87454819D02*
X4071428Y-88311961D01*
X4071428Y-88311961D02*
X4119047Y-88407200D01*
X4119047Y-88407200D02*
X4214285Y-88454819D01*
X4214285Y-88454819D02*
X4309523Y-88454819D01*
X4547619Y-87788152D02*
X4785714Y-88454819D01*
X5023809Y-87788152D02*
X4785714Y-88454819D01*
X4785714Y-88454819D02*
X4690476Y-88692914D01*
X4690476Y-88692914D02*
X4642857Y-88740533D01*
X4642857Y-88740533D02*
X4547619Y-88788152D01*
X5166667Y-88550057D02*
X5928571Y-88550057D01*
X6738095Y-88359580D02*
X6690476Y-88407200D01*
X6690476Y-88407200D02*
X6547619Y-88454819D01*
X6547619Y-88454819D02*
X6452381Y-88454819D01*
X6452381Y-88454819D02*
X6309524Y-88407200D01*
X6309524Y-88407200D02*
X6214286Y-88311961D01*
X6214286Y-88311961D02*
X6166667Y-88216723D01*
X6166667Y-88216723D02*
X6119048Y-88026247D01*
X6119048Y-88026247D02*
X6119048Y-87883390D01*
X6119048Y-87883390D02*
X6166667Y-87692914D01*
X6166667Y-87692914D02*
X6214286Y-87597676D01*
X6214286Y-87597676D02*
X6309524Y-87502438D01*
X6309524Y-87502438D02*
X6452381Y-87454819D01*
X6452381Y-87454819D02*
X6547619Y-87454819D01*
X6547619Y-87454819D02*
X6690476Y-87502438D01*
X6690476Y-87502438D02*
X6738095Y-87550057D01*
X7309524Y-88454819D02*
X7214286Y-88407200D01*
X7214286Y-88407200D02*
X7166667Y-88359580D01*
X7166667Y-88359580D02*
X7119048Y-88264342D01*
X7119048Y-88264342D02*
X7119048Y-87978628D01*
X7119048Y-87978628D02*
X7166667Y-87883390D01*
X7166667Y-87883390D02*
X7214286Y-87835771D01*
X7214286Y-87835771D02*
X7309524Y-87788152D01*
X7309524Y-87788152D02*
X7452381Y-87788152D01*
X7452381Y-87788152D02*
X7547619Y-87835771D01*
X7547619Y-87835771D02*
X7595238Y-87883390D01*
X7595238Y-87883390D02*
X7642857Y-87978628D01*
X7642857Y-87978628D02*
X7642857Y-88264342D01*
X7642857Y-88264342D02*
X7595238Y-88359580D01*
X7595238Y-88359580D02*
X7547619Y-88407200D01*
X7547619Y-88407200D02*
X7452381Y-88454819D01*
X7452381Y-88454819D02*
X7309524Y-88454819D01*
X8071429Y-87788152D02*
X8071429Y-88454819D01*
X8071429Y-87883390D02*
X8119048Y-87835771D01*
X8119048Y-87835771D02*
X8214286Y-87788152D01*
X8214286Y-87788152D02*
X8357143Y-87788152D01*
X8357143Y-87788152D02*
X8452381Y-87835771D01*
X8452381Y-87835771D02*
X8500000Y-87931009D01*
X8500000Y-87931009D02*
X8500000Y-88454819D01*
X8976191Y-87788152D02*
X8976191Y-88454819D01*
X8976191Y-87883390D02*
X9023810Y-87835771D01*
X9023810Y-87835771D02*
X9119048Y-87788152D01*
X9119048Y-87788152D02*
X9261905Y-87788152D01*
X9261905Y-87788152D02*
X9357143Y-87835771D01*
X9357143Y-87835771D02*
X9404762Y-87931009D01*
X9404762Y-87931009D02*
X9404762Y-88454819D01*
X10261905Y-88407200D02*
X10166667Y-88454819D01*
X10166667Y-88454819D02*
X9976191Y-88454819D01*
X9976191Y-88454819D02*
X9880953Y-88407200D01*
X9880953Y-88407200D02*
X9833334Y-88311961D01*
X9833334Y-88311961D02*
X9833334Y-87931009D01*
X9833334Y-87931009D02*
X9880953Y-87835771D01*
X9880953Y-87835771D02*
X9976191Y-87788152D01*
X9976191Y-87788152D02*
X10166667Y-87788152D01*
X10166667Y-87788152D02*
X10261905Y-87835771D01*
X10261905Y-87835771D02*
X10309524Y-87931009D01*
X10309524Y-87931009D02*
X10309524Y-88026247D01*
X10309524Y-88026247D02*
X9833334Y-88121485D01*
X11166667Y-88407200D02*
X11071429Y-88454819D01*
X11071429Y-88454819D02*
X10880953Y-88454819D01*
X10880953Y-88454819D02*
X10785715Y-88407200D01*
X10785715Y-88407200D02*
X10738096Y-88359580D01*
X10738096Y-88359580D02*
X10690477Y-88264342D01*
X10690477Y-88264342D02*
X10690477Y-87978628D01*
X10690477Y-87978628D02*
X10738096Y-87883390D01*
X10738096Y-87883390D02*
X10785715Y-87835771D01*
X10785715Y-87835771D02*
X10880953Y-87788152D01*
X10880953Y-87788152D02*
X11071429Y-87788152D01*
X11071429Y-87788152D02*
X11166667Y-87835771D01*
X11452382Y-87788152D02*
X11833334Y-87788152D01*
X11595239Y-87454819D02*
X11595239Y-88311961D01*
X11595239Y-88311961D02*
X11642858Y-88407200D01*
X11642858Y-88407200D02*
X11738096Y-88454819D01*
X11738096Y-88454819D02*
X11833334Y-88454819D01*
X12309525Y-88454819D02*
X12214287Y-88407200D01*
X12214287Y-88407200D02*
X12166668Y-88359580D01*
X12166668Y-88359580D02*
X12119049Y-88264342D01*
X12119049Y-88264342D02*
X12119049Y-87978628D01*
X12119049Y-87978628D02*
X12166668Y-87883390D01*
X12166668Y-87883390D02*
X12214287Y-87835771D01*
X12214287Y-87835771D02*
X12309525Y-87788152D01*
X12309525Y-87788152D02*
X12452382Y-87788152D01*
X12452382Y-87788152D02*
X12547620Y-87835771D01*
X12547620Y-87835771D02*
X12595239Y-87883390D01*
X12595239Y-87883390D02*
X12642858Y-87978628D01*
X12642858Y-87978628D02*
X12642858Y-88264342D01*
X12642858Y-88264342D02*
X12595239Y-88359580D01*
X12595239Y-88359580D02*
X12547620Y-88407200D01*
X12547620Y-88407200D02*
X12452382Y-88454819D01*
X12452382Y-88454819D02*
X12309525Y-88454819D01*
X13071430Y-88454819D02*
X13071430Y-87788152D01*
X13071430Y-87978628D02*
X13119049Y-87883390D01*
X13119049Y-87883390D02*
X13166668Y-87835771D01*
X13166668Y-87835771D02*
X13261906Y-87788152D01*
X13261906Y-87788152D02*
X13357144Y-87788152D01*
X43404762Y-95169104D02*
X43880952Y-95169104D01*
X43309524Y-95454819D02*
X43642857Y-94454819D01*
X43642857Y-94454819D02*
X43976190Y-95454819D01*
X44880952Y-95359580D02*
X44833333Y-95407200D01*
X44833333Y-95407200D02*
X44690476Y-95454819D01*
X44690476Y-95454819D02*
X44595238Y-95454819D01*
X44595238Y-95454819D02*
X44452381Y-95407200D01*
X44452381Y-95407200D02*
X44357143Y-95311961D01*
X44357143Y-95311961D02*
X44309524Y-95216723D01*
X44309524Y-95216723D02*
X44261905Y-95026247D01*
X44261905Y-95026247D02*
X44261905Y-94883390D01*
X44261905Y-94883390D02*
X44309524Y-94692914D01*
X44309524Y-94692914D02*
X44357143Y-94597676D01*
X44357143Y-94597676D02*
X44452381Y-94502438D01*
X44452381Y-94502438D02*
X44595238Y-94454819D01*
X44595238Y-94454819D02*
X44690476Y-94454819D01*
X44690476Y-94454819D02*
X44833333Y-94502438D01*
X44833333Y-94502438D02*
X44880952Y-94550057D01*
X45166667Y-94454819D02*
X45738095Y-94454819D01*
X45452381Y-95454819D02*
X45452381Y-94454819D01*
X46023810Y-94550057D02*
X46071429Y-94502438D01*
X46071429Y-94502438D02*
X46166667Y-94454819D01*
X46166667Y-94454819D02*
X46404762Y-94454819D01*
X46404762Y-94454819D02*
X46500000Y-94502438D01*
X46500000Y-94502438D02*
X46547619Y-94550057D01*
X46547619Y-94550057D02*
X46595238Y-94645295D01*
X46595238Y-94645295D02*
X46595238Y-94740533D01*
X46595238Y-94740533D02*
X46547619Y-94883390D01*
X46547619Y-94883390D02*
X45976191Y-95454819D01*
X45976191Y-95454819D02*
X46595238Y-95454819D01*
X19904762Y-5269104D02*
X20380952Y-5269104D01*
X19809524Y-5554819D02*
X20142857Y-4554819D01*
X20142857Y-4554819D02*
X20476190Y-5554819D01*
X21380952Y-5459580D02*
X21333333Y-5507200D01*
X21333333Y-5507200D02*
X21190476Y-5554819D01*
X21190476Y-5554819D02*
X21095238Y-5554819D01*
X21095238Y-5554819D02*
X20952381Y-5507200D01*
X20952381Y-5507200D02*
X20857143Y-5411961D01*
X20857143Y-5411961D02*
X20809524Y-5316723D01*
X20809524Y-5316723D02*
X20761905Y-5126247D01*
X20761905Y-5126247D02*
X20761905Y-4983390D01*
X20761905Y-4983390D02*
X20809524Y-4792914D01*
X20809524Y-4792914D02*
X20857143Y-4697676D01*
X20857143Y-4697676D02*
X20952381Y-4602438D01*
X20952381Y-4602438D02*
X21095238Y-4554819D01*
X21095238Y-4554819D02*
X21190476Y-4554819D01*
X21190476Y-4554819D02*
X21333333Y-4602438D01*
X21333333Y-4602438D02*
X21380952Y-4650057D01*
X21666667Y-4554819D02*
X22238095Y-4554819D01*
X21952381Y-5554819D02*
X21952381Y-4554819D01*
X23000000Y-4888152D02*
X23000000Y-5554819D01*
X22761905Y-4507200D02*
X22523810Y-5221485D01*
X22523810Y-5221485D02*
X23142857Y-5221485D01*
%TO.C,J4*%
D11*
X67150000Y-3250000D02*
X67150000Y-4500000D01*
X67450000Y-5800000D02*
X68200000Y-5800000D01*
X68200000Y-5800000D02*
X68200000Y-8750000D01*
X68200000Y-8750000D02*
X73750000Y-8750000D01*
X68400000Y-3250000D02*
X67150000Y-3250000D01*
X79300000Y-5800000D02*
X79300000Y-8750000D01*
X79300000Y-8750000D02*
X73750000Y-8750000D01*
X80050000Y-5800000D02*
X79300000Y-5800000D01*
X67440000Y-3540000D02*
X80060000Y-3540000D01*
X80060000Y-9510000D01*
X67440000Y-9510000D01*
X67440000Y-3540000D01*
X67450000Y-3550000D02*
X69250000Y-3550000D01*
X69250000Y-4300000D01*
X67450000Y-4300000D01*
X67450000Y-3550000D01*
X70750000Y-3550000D02*
X76750000Y-3550000D01*
X76750000Y-4300000D01*
X70750000Y-4300000D01*
X70750000Y-3550000D01*
X78250000Y-3550000D02*
X80050000Y-3550000D01*
X80050000Y-4300000D01*
X78250000Y-4300000D01*
X78250000Y-3550000D01*
%TO.C,U2*%
D12*
X29673857Y-52894400D02*
X29673857Y-58275061D01*
X29673857Y-52894400D02*
X34285853Y-52894400D01*
X29673857Y-58275061D02*
X34285853Y-58275061D01*
X30035130Y-43132342D02*
X30035130Y-46207011D01*
X30035130Y-43132342D02*
X32152804Y-43132342D01*
D13*
X30611628Y-65308350D02*
X30611628Y-38635650D01*
X30726932Y-38520349D02*
X81766345Y-38520349D01*
X30726932Y-65423651D02*
X81766345Y-65423651D01*
D12*
X32148961Y-43132342D02*
X32148961Y-46207011D01*
X32148961Y-46207011D02*
X30035130Y-46207011D01*
X34285853Y-52894400D02*
X34285853Y-58275061D01*
X80344309Y-55815328D02*
X80344309Y-58889991D01*
X80344309Y-55815328D02*
X82458143Y-55815328D01*
D13*
X81881644Y-65308350D02*
X81881644Y-38635650D01*
D12*
X82458143Y-55815328D02*
X82458143Y-58889991D01*
X82458143Y-58889991D02*
X80344309Y-58889991D01*
D13*
X30611628Y-38635650D02*
G75*
G02*
X30726932Y-38520328I115272J50D01*
G01*
X30726932Y-65423651D02*
G75*
G02*
X30611549Y-65308350I-32J115351D01*
G01*
X81766345Y-38520349D02*
G75*
G02*
X81881551Y-38635650I-45J-115251D01*
G01*
X81881644Y-65308350D02*
G75*
G02*
X81766345Y-65423644I-115344J50D01*
G01*
%TO.C,J1*%
D11*
X59630000Y-90670000D02*
X60960000Y-90670000D01*
X59630000Y-92000000D02*
X59630000Y-90670000D01*
X62230000Y-90670000D02*
X74990000Y-90670000D01*
X62230000Y-93330000D02*
X62230000Y-90670000D01*
X62230000Y-93330000D02*
X74990000Y-93330000D01*
X74990000Y-93330000D02*
X74990000Y-90670000D01*
%TO.C,J2*%
X1650000Y-7250000D02*
X1650000Y-8500000D01*
X1950000Y-9800000D02*
X2700000Y-9800000D01*
X2700000Y-9800000D02*
X2700000Y-12750000D01*
X2700000Y-12750000D02*
X7000000Y-12750000D01*
X2900000Y-7250000D02*
X1650000Y-7250000D01*
X11300000Y-9800000D02*
X11300000Y-12750000D01*
X11300000Y-12750000D02*
X7000000Y-12750000D01*
X12050000Y-9800000D02*
X11300000Y-9800000D01*
X1940000Y-7540000D02*
X12060000Y-7540000D01*
X12060000Y-13510000D01*
X1940000Y-13510000D01*
X1940000Y-7540000D01*
X1950000Y-7550000D02*
X3750000Y-7550000D01*
X3750000Y-8300000D01*
X1950000Y-8300000D01*
X1950000Y-7550000D01*
X5250000Y-7550000D02*
X8750000Y-7550000D01*
X8750000Y-8300000D01*
X5250000Y-8300000D01*
X5250000Y-7550000D01*
X10250000Y-7550000D02*
X12050000Y-7550000D01*
X12050000Y-8300000D01*
X10250000Y-8300000D01*
X10250000Y-7550000D01*
%TO.C,ACT3*%
X43036667Y-2100000D02*
X43036667Y-4340000D01*
X43036667Y-4340000D02*
X47230000Y-4340000D01*
X43276667Y-360000D02*
X43276667Y-4100000D01*
X43276667Y-4100000D02*
X56723333Y-4100000D01*
X56723333Y-4100000D02*
X56723333Y-360000D01*
%TO.C,J3*%
X87150000Y-3250000D02*
X87150000Y-4500000D01*
X87450000Y-5800000D02*
X88200000Y-5800000D01*
X88200000Y-5800000D02*
X88200000Y-8750000D01*
X88200000Y-8750000D02*
X92500000Y-8750000D01*
X88400000Y-3250000D02*
X87150000Y-3250000D01*
X96800000Y-5800000D02*
X96800000Y-8750000D01*
X96800000Y-8750000D02*
X92500000Y-8750000D01*
X97550000Y-5800000D02*
X96800000Y-5800000D01*
X87440000Y-3540000D02*
X97560000Y-3540000D01*
X97560000Y-9510000D01*
X87440000Y-9510000D01*
X87440000Y-3540000D01*
X87450000Y-3550000D02*
X89250000Y-3550000D01*
X89250000Y-4300000D01*
X87450000Y-4300000D01*
X87450000Y-3550000D01*
X90750000Y-3550000D02*
X94250000Y-3550000D01*
X94250000Y-4300000D01*
X90750000Y-4300000D01*
X90750000Y-3550000D01*
X95750000Y-3550000D02*
X97550000Y-3550000D01*
X97550000Y-4300000D01*
X95750000Y-4300000D01*
X95750000Y-3550000D01*
%TO.C,ACT1*%
X9276667Y-95900000D02*
X9276667Y-99640000D01*
X22723333Y-95900000D02*
X9276667Y-95900000D01*
X22723333Y-99640000D02*
X22723333Y-95900000D01*
X22963333Y-95660000D02*
X18770000Y-95660000D01*
X22963333Y-97900000D02*
X22963333Y-95660000D01*
%TO.C,J5*%
X1150000Y-88775000D02*
X1150000Y-90025000D01*
X1450000Y-91325000D02*
X2200000Y-91325000D01*
X2200000Y-91325000D02*
X2200000Y-94275000D01*
X2200000Y-94275000D02*
X6500000Y-94275000D01*
X2400000Y-88775000D02*
X1150000Y-88775000D01*
X10800000Y-91325000D02*
X10800000Y-94275000D01*
X10800000Y-94275000D02*
X6500000Y-94275000D01*
X11550000Y-91325000D02*
X10800000Y-91325000D01*
X1440000Y-89065000D02*
X11560000Y-89065000D01*
X11560000Y-95035000D01*
X1440000Y-95035000D01*
X1440000Y-89065000D01*
X1450000Y-89075000D02*
X3250000Y-89075000D01*
X3250000Y-89825000D01*
X1450000Y-89825000D01*
X1450000Y-89075000D01*
X4750000Y-89075000D02*
X8250000Y-89075000D01*
X8250000Y-89825000D01*
X4750000Y-89825000D01*
X4750000Y-89075000D01*
X9750000Y-89075000D02*
X11550000Y-89075000D01*
X11550000Y-89825000D01*
X9750000Y-89825000D01*
X9750000Y-89075000D01*
%TO.C,ACT2*%
X43276667Y-95900000D02*
X43276667Y-99640000D01*
X56723333Y-95900000D02*
X43276667Y-95900000D01*
X56723333Y-99640000D02*
X56723333Y-95900000D01*
X56963333Y-95660000D02*
X52770000Y-95660000D01*
X56963333Y-97900000D02*
X56963333Y-95660000D01*
%TO.C,ACT4*%
X9036667Y-2100000D02*
X9036667Y-4340000D01*
X9036667Y-4340000D02*
X13230000Y-4340000D01*
X9276667Y-360000D02*
X9276667Y-4100000D01*
X9276667Y-4100000D02*
X22723333Y-4100000D01*
X22723333Y-4100000D02*
X22723333Y-360000D01*
%TD*%
M02*
