%TF.GenerationSoftware,KiCad,Pcbnew,10.0.3*%
%TF.CreationDate,2026-06-08T01:12:05+03:00*%
%TF.ProjectId,MetuX,4d657475-582e-46b6-9963-61645f706362,rev?*%
%TF.SameCoordinates,Original*%
%TF.FileFunction,Soldermask,Bot*%
%TF.FilePolarity,Negative*%
%FSLAX46Y46*%
G04 Gerber Fmt 4.6, Leading zero omitted, Abs format (unit mm)*
G04 Created by KiCad (PCBNEW 10.0.3) date 2026-06-08 01:12:05*
%MOMM*%
%LPD*%
G01*
G04 APERTURE LIST*
G04 Aperture macros list*
%AMRoundRect*
0 Rectangle with rounded corners*
0 $1 Rounding radius*
0 $2 $3 $4 $5 $6 $7 $8 $9 X,Y pos of 4 corners*
0 Add a 4 corners polygon primitive as box body*
4,1,4,$2,$3,$4,$5,$6,$7,$8,$9,$2,$3,0*
0 Add four circle primitives for the rounded corners*
1,1,$1+$1,$2,$3*
1,1,$1+$1,$4,$5*
1,1,$1+$1,$6,$7*
1,1,$1+$1,$8,$9*
0 Add four rect primitives between the rounded corners*
20,1,$1+$1,$2,$3,$4,$5,0*
20,1,$1+$1,$4,$5,$6,$7,0*
20,1,$1+$1,$6,$7,$8,$9,0*
20,1,$1+$1,$8,$9,$2,$3,0*%
G04 Aperture macros list end*
%ADD10RoundRect,0.250000X-0.600000X-0.725000X0.600000X-0.725000X0.600000X0.725000X-0.600000X0.725000X0*%
%ADD11O,1.700000X1.950000*%
%ADD12C,4.300000*%
%ADD13C,1.700000*%
%ADD14R,1.700000X1.700000*%
%ADD15RoundRect,0.250000X0.673333X1.490000X-0.673333X1.490000X-0.673333X-1.490000X0.673333X-1.490000X0*%
%ADD16RoundRect,0.250000X-0.673333X-1.490000X0.673333X-1.490000X0.673333X1.490000X-0.673333X1.490000X0*%
%ADD17C,1.982000*%
%ADD18C,3.404000*%
%ADD19C,1.600000*%
%ADD20C,4.000000*%
%ADD21R,2.540000X2.540000*%
%ADD22C,2.540000*%
G04 APERTURE END LIST*
D10*
%TO.C,J4*%
X70000000Y-6000000D03*
D11*
X72500000Y-6000000D03*
X75000000Y-6000000D03*
X77500000Y-6000000D03*
%TD*%
D12*
%TO.C,REF\u002A\u002A*%
X33000000Y-10000000D03*
%TD*%
D13*
%TO.C,U2*%
X91440000Y-20320000D03*
X91440000Y-22860000D03*
X88900000Y-20320000D03*
X88900000Y-22860000D03*
X86360000Y-20320000D03*
X86360000Y-22860000D03*
X83820000Y-20320000D03*
X83820000Y-22860000D03*
X81280000Y-20320000D03*
X81280000Y-22860000D03*
X78740000Y-20320000D03*
X78740000Y-22860000D03*
X76200000Y-20320000D03*
X76200000Y-22860000D03*
X73660000Y-20320000D03*
X73660000Y-22860000D03*
X71120000Y-20320000D03*
X71120000Y-22860000D03*
X68580000Y-20320000D03*
X68580000Y-22860000D03*
X66040000Y-20320000D03*
X66040000Y-22860000D03*
X63500000Y-20320000D03*
X63500000Y-22860000D03*
X60960000Y-20320000D03*
X60960000Y-22860000D03*
X58420000Y-20320000D03*
X58420000Y-22860000D03*
X55880000Y-20320000D03*
X55880000Y-22860000D03*
X53340000Y-20320000D03*
X53340000Y-22860000D03*
X50800000Y-20320000D03*
X50800000Y-22860000D03*
X48260000Y-20320000D03*
X48260000Y-22860000D03*
X45720000Y-20320000D03*
X45720000Y-22860000D03*
X43180000Y-20320000D03*
X43180000Y-22860000D03*
X40640000Y-20320000D03*
X40640000Y-22860000D03*
X38100000Y-20320000D03*
X38100000Y-22860000D03*
X35560000Y-20320000D03*
X35560000Y-22860000D03*
X33020000Y-20320000D03*
X33020000Y-22860000D03*
X30480000Y-20320000D03*
X30480000Y-22860000D03*
X27940000Y-20320000D03*
X27940000Y-22860000D03*
X25400000Y-20320000D03*
X25400000Y-22860000D03*
X22860000Y-20320000D03*
X22860000Y-22860000D03*
X20320000Y-20320000D03*
X20320000Y-22860000D03*
X17780000Y-20320000D03*
X17780000Y-22860000D03*
X15240000Y-20320000D03*
X15240000Y-22860000D03*
X12700000Y-20320000D03*
X12700000Y-22860000D03*
X10160000Y-20320000D03*
X10160000Y-22860000D03*
X7620000Y-20320000D03*
X7620000Y-22860000D03*
X5080000Y-20320000D03*
X5080000Y-22860000D03*
X91440000Y-81280000D03*
X91440000Y-83820000D03*
X88900000Y-81280000D03*
X88900000Y-83820000D03*
X86360000Y-81280000D03*
X86360000Y-83820000D03*
X83820000Y-81280000D03*
X83820000Y-83820000D03*
X81280000Y-81280000D03*
X81280000Y-83820000D03*
X78740000Y-81280000D03*
X78740000Y-83820000D03*
X76200000Y-81280000D03*
X76200000Y-83820000D03*
X73660000Y-81280000D03*
X73660000Y-83820000D03*
X71120000Y-81280000D03*
X71120000Y-83820000D03*
X68580000Y-81280000D03*
X68580000Y-83820000D03*
X66040000Y-81280000D03*
X66040000Y-83820000D03*
X63500000Y-81280000D03*
X63500000Y-83820000D03*
X60960000Y-81280000D03*
X60960000Y-83820000D03*
X58420000Y-81280000D03*
X58420000Y-83820000D03*
X55880000Y-81280000D03*
X55880000Y-83820000D03*
X53340000Y-81280000D03*
X53340000Y-83820000D03*
X50800000Y-81280000D03*
X50800000Y-83820000D03*
X48260000Y-81280000D03*
X48260000Y-83820000D03*
X45720000Y-81280000D03*
X45720000Y-83820000D03*
X43180000Y-81280000D03*
X43180000Y-83820000D03*
X40640000Y-81280000D03*
X40640000Y-83820000D03*
X38100000Y-81280000D03*
X38100000Y-83820000D03*
X35560000Y-81280000D03*
X35560000Y-83820000D03*
X33020000Y-81280000D03*
X33020000Y-83820000D03*
X30480000Y-81280000D03*
X30480000Y-83820000D03*
X27940000Y-81280000D03*
X27940000Y-83820000D03*
X25400000Y-81280000D03*
X25400000Y-83820000D03*
X22860000Y-81280000D03*
X22860000Y-83820000D03*
X20320000Y-81280000D03*
X20320000Y-83820000D03*
X17780000Y-81280000D03*
X17780000Y-83820000D03*
X15240000Y-81280000D03*
X15240000Y-83820000D03*
X12700000Y-81280000D03*
X12700000Y-83820000D03*
X10160000Y-81280000D03*
X10160000Y-83820000D03*
X7620000Y-81280000D03*
X7620000Y-83820000D03*
X5080000Y-81280000D03*
X5080000Y-83820000D03*
%TD*%
D14*
%TO.C,J1*%
X60960000Y-92000000D03*
D13*
X63500000Y-92000000D03*
X66040000Y-92000000D03*
X68580000Y-92000000D03*
X71120000Y-92000000D03*
X73660000Y-92000000D03*
%TD*%
D10*
%TO.C,J2*%
X4500000Y-10000000D03*
D11*
X7000000Y-10000000D03*
X9500000Y-10000000D03*
%TD*%
D12*
%TO.C,REF\u002A\u002A*%
X33000000Y-92000000D03*
%TD*%
%TO.C,REF\u002A\u002A*%
X88000000Y-92000000D03*
%TD*%
D15*
%TO.C,ACT3*%
X45845000Y-2100000D03*
X48615000Y-2100000D03*
X51385000Y-2100000D03*
X54155000Y-2100000D03*
%TD*%
D10*
%TO.C,J3*%
X90000000Y-6000000D03*
D11*
X92500000Y-6000000D03*
X95000000Y-6000000D03*
%TD*%
D16*
%TO.C,ACT1*%
X20155000Y-97900000D03*
X17385000Y-97900000D03*
X14615000Y-97900000D03*
X11845000Y-97900000D03*
%TD*%
D10*
%TO.C,J5*%
X4000000Y-91525000D03*
D11*
X6500000Y-91525000D03*
X9000000Y-91525000D03*
%TD*%
D16*
%TO.C,ACT2*%
X54155000Y-97900000D03*
X51385000Y-97900000D03*
X48615000Y-97900000D03*
X45845000Y-97900000D03*
%TD*%
D15*
%TO.C,ACT4*%
X11845000Y-2100000D03*
X14615000Y-2100000D03*
X17385000Y-2100000D03*
X20155000Y-2100000D03*
%TD*%
D17*
%TO.C,U3*%
X55880000Y-58420000D03*
X53340000Y-58420000D03*
X50800000Y-58420000D03*
X48260000Y-58420000D03*
X45720000Y-58420000D03*
X43180000Y-58420000D03*
X55880000Y-40640000D03*
X53340000Y-40640000D03*
X50800000Y-40640000D03*
X48260000Y-40640000D03*
X45720000Y-40640000D03*
X43180000Y-40640000D03*
D18*
X59690000Y-40640000D03*
X39370000Y-40640000D03*
X59690000Y-58420000D03*
X39370000Y-58420000D03*
%TD*%
D19*
%TO.C,R7*%
X50800000Y-68580000D03*
X40640000Y-68580000D03*
%TD*%
D20*
%TO.C,TP1*%
X71000000Y-27500000D03*
%TD*%
D21*
%TO.C,U1*%
X3000000Y-33000000D03*
D22*
X20780000Y-33000000D03*
X20780000Y-73640000D03*
X3000000Y-73640000D03*
%TD*%
D19*
%TO.C,R8*%
X71360000Y-35560000D03*
X71360000Y-45720000D03*
%TD*%
D20*
%TO.C,TP0*%
X91000000Y-29000000D03*
%TD*%
D19*
%TO.C,R6*%
X67500000Y-35560000D03*
X67500000Y-45720000D03*
%TD*%
%TO.C,R9*%
X31000000Y-35560000D03*
X41160000Y-35560000D03*
%TD*%
%TO.C,R5*%
X25620000Y-45720000D03*
X25620000Y-35560000D03*
%TD*%
M02*
